<svg width="13" height="13" viewBox="0 0 13 13" fill="none" xmlns="http://www.w3.org/2000/svg">
<g clip-path="url(#clip0_110_890)">
<path d="M12.3125 1.83632C12.3125 1.64245 12.2371 1.45982 12.0995 1.32257C11.825 1.04807 11.3469 1.04807 11.072 1.32257L6.5 5.89495L1.92763 1.32257C1.65313 1.04807 1.175 1.04807 0.900129 1.32257C0.832453 1.38988 0.77881 1.46994 0.742311 1.55813C0.705812 1.64632 0.687183 1.74088 0.687504 1.83632C0.687504 2.03057 0.763254 2.21282 0.900504 2.35007L5.4725 6.92245L0.900504 11.4945C0.83276 11.5617 0.779048 11.6418 0.742484 11.73C0.70592 11.8182 0.687232 11.9127 0.687504 12.0082C0.687504 12.2025 0.763254 12.3847 0.900504 12.522C1.175 12.7965 1.65313 12.7965 1.928 12.522L6.5 7.94995L11.0724 12.522C11.2096 12.6592 11.3919 12.735 11.5861 12.735C11.78 12.735 11.9623 12.6592 12.0999 12.522C12.2371 12.3847 12.3125 12.2025 12.3125 12.0082C12.3125 11.8143 12.2371 11.6317 12.0995 11.4945L7.5275 6.92245L12.0995 2.35007C12.2371 2.21282 12.3125 2.03057 12.3125 1.83632Z" fill="#FF5252"/>
</g>
<defs>
<clipPath id="clip0_110_890">
<rect width="12" height="12" fill="white" transform="translate(0.5 0.925781)"/>
</clipPath>
</defs>
</svg>
