<svg width="37" height="64" viewBox="0 0 37 64" fill="none" xmlns="http://www.w3.org/2000/svg">
<path d="M0.434204 0.2052L5.33882 3.85097L9.52822 0.2052L14.1263 3.85097L18.6221 0.2052L23.1181 3.85097L27.7161 0.2052L32.1099 3.85097L36.8101 0.2052V63.3985L32.1099 60.3604L27.7161 63.3985L23.5268 60.3604L18.6221 63.3985L14.1263 60.3604L9.52822 63.3985L5.33882 60.3604L0.434204 63.3985V0.2052Z" fill="#EEE7DB"/>
<path d="M31.7907 4.23547L32.0992 4.49231L32.4166 4.24622L36.3102 1.22571V62.4796L32.3815 59.9406L32.1002 59.7589L31.8258 59.9493L27.7233 62.7853L23.8199 59.9552L23.5485 59.7589L23.2633 59.9357L18.6334 62.8029L14.4059 59.9464L14.1295 59.7589L13.8502 59.9435L9.54163 62.7902L5.63245 59.9552L5.36096 59.7589L5.07581 59.9357L0.934204 62.5001V1.19934L5.04065 4.25208L5.36389 4.49231L5.66663 4.22766L9.5426 0.854614L13.816 4.24231L14.1295 4.49231L14.441 4.23938L18.6217 0.848755L22.8033 4.23938L23.1149 4.49231L23.4283 4.24231L27.7086 0.848755L31.7907 4.23547Z" stroke="#242526" stroke-opacity="0.2"/>
</svg>
