<svg width="32" height="32" viewBox="0 0 32 32" fill="none" xmlns="http://www.w3.org/2000/svg">
<path d="M15.3978 30.3982C20.3236 28.1402 25.3141 25.3806 29.2028 21.7428C29.2676 20.9275 29.5917 20.802 29.6565 20.0494C29.4621 19.7985 29.4621 19.3595 29.3325 19.0459C28.4251 18.4187 26.8696 18.6069 26.1567 18.1678C26.1567 18.356 25.8326 18.2933 25.703 18.4187C24.1475 18.1051 22.3975 18.2933 20.4532 18.1051C20.518 18.4187 20.1291 18.2305 20.0643 18.356C19.8699 18.8577 19.8699 19.2341 20.0643 19.6104C20.518 19.6104 20.7124 19.7358 20.9069 19.924C21.9439 19.7358 24.1475 20.1121 25.703 19.8613C26.0918 20.1749 27.6473 19.7985 27.777 20.6139C26.2863 22.3073 24.8604 24.0007 22.6568 25.0043C22.5272 25.1924 22.4624 25.4433 22.2679 25.6315C22.0087 25.5687 22.0735 25.6315 21.7494 25.6315C19.8051 27.1367 17.3422 28.1402 15.3978 29.7082C15.2682 30.0846 15.5275 30.0846 15.3978 30.3982Z" fill="#242526"/>
<path d="M21.6126 2.03714C21.5518 2.20037 21.6735 2.24118 21.8562 2.24118C22.0389 2.85328 20.5775 2.93489 20.0295 3.13893C18.6899 3.58781 17.3503 4.40394 16.4978 4.93443C13.1488 6.32187 10.9568 8.44383 8.52115 10.3618C6.45086 12.8102 4.44147 15.0137 4.38058 18.5231C4.62415 21.3796 6.38997 22.1339 9.43451 23.0724C10.0434 23.0316 10.3479 23.1949 10.7132 23.3173C14.6711 23.9294 18.6899 23.1949 22.0998 22.8276C22.526 22.5828 23.5003 22.4603 23.8047 22.8684C23.3176 23.3173 21.978 23.3581 21.0037 23.3173C20.3948 23.3581 19.9686 23.807 19.4815 23.5621C18.8726 23.9294 16.985 24.2558 15.7062 24.3375C14.4884 24.4191 13.3315 24.4191 12.2355 24.3783C8.52115 24.2558 5.96374 22.95 4.2588 21.481C4.07613 20.7873 3.589 20.4608 3.34544 19.8895V19.359C2.61475 17.8084 3.22366 16.5644 3.52811 15.1362C3.71079 15.0137 3.83257 14.8097 4.01524 14.6057V14.2792C4.38058 13.7079 4.62414 13.1774 5.11127 12.6469C5.23305 12.4837 5.47661 12.3613 5.5984 12.2389C5.72018 12.1573 5.47661 12.0756 5.5375 12.0348C5.5984 11.9532 5.72018 11.9532 5.84196 11.7492C6.63354 10.7698 7.66868 9.62723 8.76471 8.77028L9.37362 8.36221C9.55629 8.11737 9.55629 7.91334 9.86074 7.7093C10.4088 7.30123 11.2003 6.81155 11.931 6.44429C13.5751 4.89363 16.1934 3.91426 18.4463 2.73086C19.5424 2.52683 20.2122 1.83311 21.6126 2.03714Z" fill="#242526"/>
</svg>
