<svg width="32" height="33" viewBox="0 0 32 33" fill="none" xmlns="http://www.w3.org/2000/svg">
<path d="M15.3978 31.3241C20.3236 29.0661 25.3141 26.3065 29.2028 22.6687C29.2676 21.8534 29.5917 21.728 29.6565 20.9753C29.4621 20.7244 29.4621 20.2854 29.3325 19.9718C28.4251 19.3446 26.8696 19.5328 26.1567 19.0937C26.1567 19.2819 25.8326 19.2192 25.703 19.3446C24.1475 19.031 22.3976 19.2192 20.4532 19.031C20.518 19.3446 20.1291 19.1564 20.0643 19.2819C19.8699 19.7836 19.8699 20.16 20.0643 20.5363C20.518 20.5363 20.7124 20.6617 20.9069 20.8499C21.9439 20.6617 24.1475 21.038 25.703 20.7872C26.0919 21.1008 27.6473 20.7244 27.777 21.5398C26.2863 23.2332 24.8604 24.9267 22.6568 25.9302C22.5272 26.1183 22.4624 26.3692 22.2679 26.5574C22.0087 26.4946 22.0735 26.5574 21.7494 26.5574C19.8051 28.0626 17.3422 29.0661 15.3978 30.6341C15.2682 31.0105 15.5275 31.0105 15.3978 31.3241Z" fill="white"/>
<path d="M21.6126 2.96292C21.5518 3.12615 21.6735 3.16696 21.8562 3.16696C22.0389 3.77906 20.5775 3.86068 20.0295 4.06471C18.6899 4.51359 17.3503 5.32972 16.4978 5.86021C13.1488 7.24765 10.9568 9.36961 8.52115 11.2875C6.45086 13.7359 4.44147 15.9395 4.38058 19.4489C4.62415 22.3054 6.38997 23.0597 9.43451 23.9982C10.0434 23.9574 10.3479 24.1206 10.7132 24.2431C14.6711 24.8552 18.6899 24.1206 22.0998 23.7534C22.526 23.5085 23.5003 23.3861 23.8047 23.7942C23.3176 24.2431 21.978 24.2839 21.0037 24.2431C20.3948 24.2839 19.9686 24.7328 19.4815 24.4879C18.8726 24.8552 16.985 25.1816 15.7062 25.2632C14.4884 25.3449 13.3315 25.3449 12.2355 25.304C8.52115 25.1816 5.96374 23.8758 4.2588 22.4068C4.07613 21.713 3.589 21.3866 3.34544 20.8153V20.2848C2.61475 18.7341 3.22366 17.4902 3.52811 16.0619C3.71079 15.9395 3.83257 15.7355 4.01524 15.5315V15.205C4.38058 14.6337 4.62414 14.1032 5.11127 13.5727C5.23305 13.4095 5.47661 13.2871 5.5984 13.1646C5.72018 13.083 5.47661 13.0014 5.5375 12.9606C5.5984 12.879 5.72018 12.879 5.84196 12.675C6.63354 11.6956 7.66868 10.553 8.76471 9.69606L9.37362 9.28799C9.55629 9.04315 9.55629 8.83912 9.86074 8.63508C10.4088 8.22701 11.2003 7.73733 11.931 7.37007C13.5751 5.81941 16.1934 4.84004 18.4463 3.65664C19.5424 3.45261 20.2122 2.75889 21.6126 2.96292Z" fill="white"/>
</svg>
