<svg width="175" height="48" viewBox="0 0 175 48" fill="none" xmlns="http://www.w3.org/2000/svg">
<path d="M58.0848 46.5203C57.6713 46.7393 57.208 46.8512 56.7385 46.8454C55.9011 46.8454 55.2147 46.5811 54.6984 46.0588C54.182 45.5364 53.9213 44.8626 53.9213 44.0461C53.9213 43.2297 54.1833 42.5435 54.6984 42.0236C55.2134 41.5037 55.9011 41.2357 56.7385 41.2357C57.2069 41.2301 57.669 41.3424 58.081 41.562C58.4134 41.7413 58.6971 41.9966 58.9084 42.3065L59.9449 41.7147C59.6195 41.2405 59.1832 40.8503 58.6729 40.5768C58.0807 40.2553 57.4147 40.0891 56.7385 40.0941C55.5799 40.0941 54.6127 40.4751 53.8596 41.227C53.1065 41.9789 52.7262 42.9282 52.7262 44.0461C52.7141 44.5663 52.8083 45.0835 53.003 45.5672C53.1977 46.0508 53.489 46.491 53.8596 46.8616C54.6152 47.616 55.5799 47.9994 56.7385 47.9994C57.4164 48.0054 58.0843 47.8391 58.678 47.5167C59.1866 47.2427 59.6211 46.8526 59.9449 46.3789L58.9084 45.787C58.699 46.0942 58.4161 46.346 58.0848 46.5203Z" fill="#242526"/>
<path d="M68.6535 41.2398C68.0434 40.6445 67.2555 40.2579 66.4058 40.1367C65.556 40.0155 64.6892 40.1662 63.9328 40.5666C63.1764 40.967 62.5704 41.596 62.2039 42.3611C61.8374 43.1261 61.7297 43.9868 61.8967 44.8166C62.0637 45.6465 62.4966 46.4016 63.1317 46.971C63.7667 47.5403 64.5705 47.8939 65.4247 47.9796C66.2789 48.0654 67.1385 47.8788 67.877 47.4473C68.6156 47.0158 69.1941 46.3622 69.5275 45.5827C69.7263 45.0953 69.826 44.5742 69.821 44.049C69.8312 43.527 69.733 43.0085 69.5322 42.5254C69.3314 42.0423 69.0324 41.6048 68.6535 41.2398ZM67.806 46.0554C67.2685 46.5626 66.5529 46.8458 65.8086 46.8458C65.0643 46.8458 64.3488 46.5626 63.8113 46.0554C63.5482 45.8009 63.3423 45.4949 63.2068 45.1571C63.0665 44.8012 62.9972 44.422 63.0027 44.0403C62.9916 43.6681 63.0576 43.2976 63.1966 42.9514C63.3356 42.6051 63.5447 42.2904 63.8113 42.0265C64.3468 41.5155 65.0631 41.2298 65.8086 41.2298C66.5541 41.2298 67.2704 41.5155 67.806 42.0265C68.3255 42.5711 68.6147 43.2904 68.6147 44.0378C68.6147 44.7853 68.3255 45.5046 67.806 46.0492V46.0554Z" fill="#242526"/>
<path d="M77.1379 45.2107C77.093 45.0528 77.0291 44.9008 76.9477 44.7578C76.8645 44.6257 76.7598 44.5079 76.6379 44.4091C76.5138 44.3049 76.3839 44.2076 76.2488 44.1176C76.0967 44.0279 75.937 43.9515 75.7715 43.8892C75.5561 43.8036 75.3848 43.7391 75.2677 43.7006C75.1506 43.6622 74.9554 43.5989 74.7111 43.5244C74.0814 43.3334 73.6658 43.1522 73.4328 42.9884C73.3087 42.903 73.2077 42.7888 73.1388 42.656C73.0698 42.5232 73.035 42.3757 73.0374 42.2265C73.0343 42.0865 73.0649 41.9478 73.1266 41.8216C73.1883 41.6955 73.2794 41.5855 73.3925 41.5007C73.6537 41.3138 73.9719 41.2206 74.2942 41.2364C74.6294 41.226 74.9606 41.31 75.2491 41.4786C75.5375 41.6472 75.7711 41.8933 75.9226 42.1881L76.9301 41.6161C76.6912 41.1789 76.3448 40.8077 75.9226 40.5365C75.437 40.237 74.8733 40.0835 74.3005 40.0948C73.6625 40.0794 73.0403 40.2918 72.5487 40.6929C72.0702 41.0875 71.8372 41.6049 71.8372 42.2725C71.8307 42.5713 71.8913 42.8679 72.0148 43.141C72.1297 43.382 72.3053 43.59 72.5248 43.7453C72.7472 43.9063 72.9872 44.0424 73.2401 44.1511C73.5327 44.2719 73.8321 44.3758 74.1368 44.4625C74.8131 44.6511 75.2702 44.8236 75.5473 44.9898C75.6835 45.069 75.7978 45.18 75.88 45.3132C75.9621 45.4463 76.0096 45.5974 76.0182 45.753C76.0268 45.9085 75.9963 46.0638 75.9293 46.205C75.8623 46.3461 75.7609 46.4687 75.6342 46.562C75.3823 46.7493 75.0272 46.8411 74.531 46.8411C73.6041 46.8411 72.9492 46.459 72.579 45.7058L71.55 46.3002C71.7598 46.7915 72.1154 47.2088 72.5701 47.4975C73.0815 47.8276 73.7275 47.9939 74.4856 47.9939C75.3068 47.9939 75.978 47.7891 76.4843 47.3871C76.9905 46.9851 77.226 46.4652 77.226 45.7827C77.2238 45.5889 77.1941 45.3964 77.1379 45.2107Z" fill="#242526"/>
<path d="M85.6437 40.2536L83.2244 44.2056L80.7913 40.2585H79.4539V47.8449H80.6603V42.1967L83.2232 46.3497L85.786 42.1831V47.8449H86.9799V40.2585L85.6437 40.2536Z" fill="#242526"/>
<path d="M90.9444 46.7207V44.5505H94.0072V43.4536H90.9444V41.3727H94.2956V40.256H89.7379V47.8424H94.3523V46.7256L90.9444 46.7207Z" fill="#242526"/>
<path d="M96.128 40.2536V41.3703H98.3004V47.8375H99.5069V41.3703H101.691V40.2536H96.128Z" fill="#242526"/>
<path d="M103.837 40.2536V47.84H105.042V40.2536H103.837Z" fill="#242526"/>
<path d="M112.788 46.5204C112.374 46.7396 111.911 46.8514 111.441 46.8455C110.604 46.8455 109.918 46.5812 109.4 46.0588C108.883 45.5364 108.623 44.8626 108.623 44.0462C108.623 43.2297 108.885 42.5435 109.4 42.0236C109.916 41.5037 110.604 41.2357 111.441 41.2357C111.909 41.2299 112.371 41.3422 112.783 41.562C113.116 41.7403 113.4 41.9958 113.611 42.3065L114.647 41.7147C114.322 41.24 113.886 40.8496 113.375 40.5768C112.783 40.2549 112.117 40.0886 111.441 40.0942C110.285 40.0942 109.316 40.4751 108.564 41.227C107.812 41.979 107.431 42.9282 107.431 44.0462C107.419 44.5663 107.513 45.0836 107.707 45.5673C107.902 46.051 108.193 46.4911 108.564 46.8616C109.32 47.616 110.285 47.9994 111.441 47.9994C112.119 48.0056 112.787 47.8393 113.38 47.5167C113.889 47.2435 114.324 46.8532 114.647 46.3789L113.612 45.787C113.403 46.0945 113.12 46.3464 112.788 46.5204Z" fill="#242526"/>
<path d="M122.192 45.2106C122.147 45.0528 122.084 44.9008 122.003 44.7577C121.919 44.6256 121.814 44.5078 121.692 44.4091C121.568 44.3046 121.438 44.2072 121.303 44.1175C121.151 44.0278 120.992 43.9514 120.827 43.8892C120.61 43.8036 120.439 43.739 120.323 43.7006C120.207 43.6621 120.012 43.5988 119.766 43.5244C119.137 43.3333 118.721 43.1521 118.489 42.9883C118.365 42.9031 118.264 42.7891 118.195 42.6562C118.125 42.5234 118.09 42.3758 118.093 42.2265C118.09 42.0864 118.121 41.9476 118.183 41.8215C118.245 41.6953 118.336 41.5854 118.449 41.5006C118.71 41.3136 119.028 41.2203 119.351 41.2363C119.686 41.2262 120.017 41.3103 120.305 41.4789C120.593 41.6474 120.827 41.8934 120.978 42.188L121.985 41.616C121.746 41.179 121.4 40.808 120.978 40.5365C120.492 40.2372 119.929 40.0837 119.356 40.0947C118.717 40.0799 118.094 40.2922 117.602 40.6928C117.124 41.0874 116.893 41.6048 116.893 42.2724C116.886 42.5711 116.946 42.8676 117.069 43.141C117.185 43.3818 117.361 43.5897 117.58 43.7452C117.802 43.9059 118.041 44.042 118.293 44.151C118.586 44.2714 118.886 44.3754 119.191 44.4624C119.867 44.651 120.324 44.8235 120.601 44.9898C120.738 45.0686 120.853 45.1796 120.935 45.3128C121.018 45.446 121.065 45.5973 121.074 45.7531C121.082 45.9089 121.051 46.0644 120.984 46.2055C120.916 46.3467 120.814 46.4691 120.687 46.5619C120.443 46.7493 120.083 46.8411 119.586 46.8411C118.659 46.8411 118.003 46.4589 117.634 45.7057L116.604 46.3001C116.814 46.7915 117.17 47.2088 117.625 47.4975C118.137 47.8275 118.782 47.9938 119.54 47.9938C120.361 47.9938 121.033 47.7891 121.538 47.3871C122.043 46.985 122.281 46.4651 122.281 45.7827C122.279 45.5888 122.249 45.3962 122.192 45.2106Z" fill="#242526"/>
<path d="M174.5 18.683V17.6978C171.28 17.1307 168.002 16.9437 164.737 17.1407L158.063 1.1341L157.608 0.0396996L157.593 0.00619507L157.341 0.490118L142.492 29.6494C142.114 30.3194 141.766 30.9895 141.462 31.6533H145.618C146.406 29.6759 147.515 27.8375 148.901 26.2098C152.232 22.3124 156.69 20.2862 160.966 19.2749L166.026 31.6546H170.811L165.338 18.5465C168.387 18.2425 171.462 18.2883 174.5 18.683ZM160.301 17.6718C155.549 18.5403 150.433 20.5182 146.299 24.6427C146.289 24.6516 146.28 24.6616 146.272 24.6725L155.638 6.27234L160.298 17.6767L160.301 17.6718Z" fill="#242526"/>
<path d="M112.641 18.5504L112.05 17.1359L105.376 1.12928L104.921 0.0348725L104.906 0.000125885L104.654 0.484049L89.8046 29.6433C89.4268 30.3146 89.0792 30.9846 88.7745 31.6472H92.9304C93.7201 29.6737 94.8284 27.8388 96.2123 26.2137C99.5434 22.3163 104.002 20.29 108.277 19.2787L113.337 31.6596H118.123L112.641 18.5504ZM107.613 17.6669C102.862 18.5355 97.7463 20.5134 93.6117 24.6391C93.6019 24.6477 93.593 24.6572 93.5853 24.6676L102.951 6.26751L107.611 17.6719L107.613 17.6669Z" fill="#242526"/>
<path d="M133.961 31.66H128.375V31.2455C128.375 27.2203 128.375 23.1951 128.375 19.1699C128.382 18.9331 128.316 18.6999 128.188 18.4998C124.347 12.4612 120.51 6.42252 116.677 0.383858C116.61 0.279629 116.551 0.172919 116.468 0.0351881H122.891L132.887 16.2391C132.973 16.0976 133.039 15.9983 133.096 15.8954C135.942 10.7104 138.785 5.52416 141.627 0.336706C141.753 0.0997098 141.895 -0.00948025 142.181 0.00540959C142.673 0.0327076 143.168 0.0128542 143.703 0.0128542C143.628 0.15803 143.577 0.261015 143.514 0.37393C140.391 5.95266 137.267 11.5314 134.141 17.1101C134.018 17.3277 133.956 17.5734 133.961 17.8223C133.966 22.2794 133.966 26.7364 133.961 31.1934V31.66Z" fill="#242526"/>
<path d="M72.5714 30.1584H84.1287V31.6473H67.1208V0.038681H72.5676L72.5714 30.1584Z" fill="#242526"/>
<path d="M28.856 2.59984C28.7906 1.9906 28.7163 1.4645 28.6508 1.03641C28.579 0.581033 28.516 0.237319 28.4757 0.0214165H27.4984C27.5639 0.491687 27.71 1.62456 27.7818 3.18427C27.8108 3.78979 27.8259 4.46355 27.8234 5.18695C27.8171 6.30369 27.7604 7.53707 27.6231 8.84489C27.545 9.59807 27.4392 10.3761 27.2982 11.1665C27.1886 11.7869 27.0577 12.416 26.9015 13.05C26.224 15.827 25.0905 18.6821 23.2367 21.232C22.3171 22.5038 21.2385 23.6565 20.0266 24.6629C19.6299 24.9917 19.1967 25.3242 18.7181 25.6555C18.538 25.7796 18.3403 25.9037 18.1539 26.0278C14.3187 17.3197 10.5032 8.65008 6.70745 0.01894H0.5C5.22601 10.5924 9.93732 21.1364 14.6339 31.6512H14.9992C15.5365 31.403 16.0768 31.1292 16.62 30.8297L16.6363 30.8198C17.982 30.0764 19.2497 29.2036 20.4208 28.2141C20.7986 27.8915 21.1852 27.5502 21.5542 27.1867C21.5645 27.1778 21.5742 27.1683 21.5832 27.1582C25.6723 23.1875 27.6282 18.2553 28.4959 13.6841C28.7602 12.273 28.9352 10.847 29.0198 9.41443C29.079 8.46768 29.0978 7.5532 29.0916 6.70448C29.085 5.33318 29.0064 3.96314 28.856 2.59984Z" fill="#242526"/>
<path d="M43.4169 1.52378V14.3402H56.6277V15.9024H43.4144V30.1458H57.7864V31.6497H37.9311V0.0261116H57.3431L57.7864 0.0385168V1.52378H43.4169Z" fill="#242526"/>
</svg>
