<svg width="32" height="32" viewBox="0 0 32 32" fill="none" xmlns="http://www.w3.org/2000/svg">
<circle cx="16" cy="16" r="16" fill="#D8D3CD"/>
<path d="M17.9083 10.6673C17.1444 9.56992 16.4846 8.62204 16.3245 8.16822C16.3074 8.11951 16.2756 8.07725 16.2337 8.04716C16.1917 8.01707 16.1415 8.00061 16.0898 8C15.9919 8.00298 15.8886 8.06351 15.8512 8.16241C15.6883 8.59156 15.0618 9.49115 14.3364 10.5335C12.6751 12.9194 10.4 16.187 10.4 18.313C10.4 21.4488 12.951 24 16.0869 24C19.2227 24 21.7737 21.4488 21.7737 18.313C21.7737 16.2214 19.5395 13.0113 17.9083 10.6673Z" fill="#242526" fill-opacity="0.8"/>
</svg>
