<svg width="32" height="32" viewBox="0 0 32 32" fill="none" xmlns="http://www.w3.org/2000/svg">
<circle cx="16" cy="16" r="16" fill="#D8D3CD"/>
<path d="M10.0155 11.235L11.2664 13.4576H13.7289L11.3753 10.424C11.4359 10.2539 11.4574 10.0733 11.4383 9.89447C11.4192 9.71567 11.36 9.54296 11.2648 9.38821C11.1813 9.25131 11.0702 9.13183 10.9379 9.03679C10.8056 8.94176 10.6548 8.8731 10.4944 8.83486C10.334 8.79662 10.1673 8.78958 10.004 8.81415C9.84069 8.83872 9.68419 8.89441 9.5437 8.97793C9.25866 9.15123 9.05543 9.42448 8.9773 9.73944C8.89918 10.0544 8.95234 10.3862 9.12545 10.6641C9.22005 10.8169 9.34907 10.9475 9.50309 11.0463C9.6571 11.1451 9.83219 11.2095 10.0155 11.235ZM23.1403 15.9023C23.3683 15.9023 23.587 15.8154 23.7482 15.6608C23.9094 15.5061 24 15.2963 24 15.0775C24 14.8588 23.9094 14.649 23.7482 14.4943C23.587 14.3396 23.3683 14.2527 23.1403 14.2527H8.8597C8.63169 14.2527 8.41302 14.3396 8.2518 14.4943C8.09058 14.649 8 14.8588 8 15.0775C8 15.2963 8.09058 15.5061 8.2518 15.6608C8.41302 15.8154 8.63169 15.9023 8.8597 15.9023H23.1403ZM23.2657 16.6847C23.2242 16.6909 23.1823 16.695 23.1403 16.6969H8.8597C8.81716 16.6969 8.77627 16.6879 8.73428 16.6847C8.88061 18.0667 9.44424 19.3776 10.356 20.4566C11.2678 21.5356 12.488 22.3357 13.8671 22.7589H12.8062C12.638 22.7636 12.4783 22.831 12.361 22.9469C12.2438 23.0627 12.1782 23.2179 12.1782 23.3793C12.1782 23.5408 12.2438 23.696 12.361 23.8118C12.4783 23.9276 12.638 23.9951 12.8062 23.9998H19.1943C19.3626 23.9951 19.5223 23.9276 19.6395 23.8118C19.7568 23.696 19.8224 23.5408 19.8224 23.3793C19.8224 23.2179 19.7568 23.0627 19.6395 22.9469C19.5223 22.831 19.3626 22.7636 19.1943 22.7589H18.1329C19.512 22.3359 20.7324 21.5357 21.6442 20.4567C22.5559 19.3777 23.1195 18.0667 23.2657 16.6847Z" fill="#242526" fill-opacity="0.8"/>
</svg>
